<svg width="543" height="592" viewBox="0 0 543 592" fill="none" xmlns="http://www.w3.org/2000/svg">
<path d="M495.054 247.439C442.281 148.836 299.133 183.952 269.899 135.996C254.925 111.475 238.175 82.9737 213.878 68.1737C190.719 53.9997 163.867 49.027 140.458 50.8932C56.8598 57.5668 21.4218 139.162 37.4788 228.765C58.917 348.288 156.038 470.385 271.415 471.235C331.767 471.731 389.433 448.108 434.583 414.882L435.59 414.138C480.74 380.604 535.354 322.715 495.054 247.439Z" fill="#407BFF"/>
<path opacity="0.7" d="M495.054 247.439C442.281 148.836 299.133 183.952 269.899 135.996C254.925 111.475 238.175 82.9737 213.878 68.1737C190.719 53.9997 163.867 49.027 140.458 50.8932C56.8598 57.5668 21.4218 139.162 37.4788 228.765C58.917 348.288 156.038 470.385 271.415 471.235C331.767 471.731 389.433 448.108 434.583 414.882L435.59 414.138C480.74 380.604 535.354 322.715 495.054 247.439Z" fill="white"/>
<path d="M85.39 254.608H79.5216C73.2242 254.608 67.1847 257.337 62.7318 262.195C58.2788 267.053 55.7772 273.642 55.7772 280.511V422.653C55.7772 429.523 58.2788 436.111 62.7318 440.969C67.1847 445.827 73.2242 448.556 79.5216 448.556H160.034C166.331 448.556 172.371 445.827 176.824 440.969C181.277 436.111 183.778 429.523 183.778 422.653" stroke="#263238" stroke-width="1.30296" stroke-linecap="round" stroke-linejoin="round" stroke-dasharray="5.21 5.21"/>
<path d="M177.217 120.487V92.4109C177.217 88.2099 178.744 84.1804 181.464 81.2065C184.184 78.2327 187.875 76.5572 191.725 76.5479H296.426C300.283 76.5479 303.981 78.2191 306.708 81.194C309.435 84.1689 310.967 88.2038 310.967 92.4109" stroke="#263238" stroke-width="1.30296" stroke-linecap="round" stroke-linejoin="round" stroke-dasharray="5.21 5.21"/>
<path d="M271.415 558.145C385.94 558.145 478.781 543.993 478.781 526.537C478.781 509.08 385.94 494.929 271.415 494.929C156.89 494.929 64.0493 509.08 64.0493 526.537C64.0493 543.993 156.89 558.145 271.415 558.145Z" fill="#407BFF"/>
<path opacity="0.5" d="M271.415 558.145C385.94 558.145 478.781 543.993 478.781 526.537C478.781 509.08 385.94 494.929 271.415 494.929C156.89 494.929 64.0493 509.08 64.0493 526.537C64.0493 543.993 156.89 558.145 271.415 558.145Z" fill="white"/>
<path d="M466.892 158.155V370.835C466.892 377.788 464.361 384.456 459.856 389.373C455.35 394.29 449.239 397.054 442.866 397.057H99.9636C93.5905 397.054 87.4795 394.29 82.9741 389.373C78.4686 384.456 75.9377 377.788 75.9377 370.835V158.155C75.9377 157.529 75.9377 156.973 76.0135 156.312C76.4356 149.696 79.1421 143.501 83.5869 138.976C88.0318 134.452 93.8843 131.935 99.9636 131.933H442.866C448.953 131.935 454.811 134.459 459.257 138.993C463.703 143.528 466.405 149.735 466.816 156.359C466.871 156.926 466.892 157.54 466.892 158.155Z" fill="white" stroke="#263238" stroke-width="1.30296" stroke-linecap="round" stroke-linejoin="round"/>
<path d="M87.6311 166.139H456.422V362.603C456.422 369.119 454.049 375.368 449.826 379.975C445.602 384.583 439.874 387.171 433.901 387.171H110.163C104.19 387.171 98.4617 384.583 94.2382 379.975C90.0147 375.368 87.642 369.119 87.642 362.603V166.139H87.6311Z" fill="#263238"/>
<path opacity="0.2" d="M456.433 166.139V362.603C456.465 369.082 454.136 375.31 449.96 379.917C445.783 384.524 440.1 387.134 434.161 387.171H109.903C103.964 387.134 98.2809 384.524 94.1044 379.917C89.9279 375.31 87.5995 369.082 87.6312 362.603V166.139H456.433Z" fill="white"/>
<path d="M466.816 156.359H76.0136C76.4357 149.743 79.1421 143.548 83.587 139.024C88.0319 134.499 93.8843 131.982 99.9637 131.98H442.866C448.946 131.982 454.798 134.499 459.243 139.024C463.688 143.548 466.394 149.743 466.816 156.359Z" fill="#407BFF" stroke="#263238" stroke-width="1.30296" stroke-miterlimit="10"/>
<path d="M124.033 144.122C124.033 145.04 123.783 145.938 123.316 146.701C122.848 147.464 122.184 148.059 121.406 148.411C120.629 148.762 119.773 148.854 118.948 148.675C118.122 148.496 117.364 148.054 116.769 147.404C116.174 146.755 115.769 145.928 115.604 145.028C115.44 144.127 115.524 143.194 115.847 142.346C116.169 141.497 116.714 140.772 117.414 140.262C118.114 139.752 118.936 139.48 119.778 139.48C120.906 139.48 121.989 139.969 122.787 140.84C123.585 141.71 124.033 142.891 124.033 144.122Z" fill="#263238"/>
<path d="M142.028 144.122C142.028 145.04 141.778 145.938 141.311 146.701C140.843 147.464 140.179 148.059 139.401 148.411C138.624 148.762 137.768 148.854 136.943 148.675C136.117 148.496 135.359 148.054 134.764 147.404C134.169 146.755 133.764 145.928 133.599 145.028C133.435 144.127 133.519 143.194 133.841 142.346C134.164 141.497 134.709 140.772 135.409 140.262C136.108 139.752 136.931 139.48 137.773 139.48C138.901 139.48 139.984 139.969 140.782 140.84C141.58 141.71 142.028 142.891 142.028 144.122Z" fill="#263238"/>
<path d="M155.768 148.764C158.118 148.764 160.023 146.686 160.023 144.122C160.023 141.558 158.118 139.48 155.768 139.48C153.418 139.48 151.513 141.558 151.513 144.122C151.513 146.686 153.418 148.764 155.768 148.764Z" fill="#263238"/>
<path d="M456.422 166.139V362.603C456.422 369.119 454.049 375.368 449.826 379.975C445.602 384.583 439.874 387.171 433.901 387.171H110.163C104.95 387.17 99.8988 385.196 95.8708 381.586C91.8429 377.976 89.0877 372.953 88.0752 367.375V367.304C87.7999 365.747 87.6621 364.165 87.6637 362.579V166.139H456.422Z" stroke="#263238" stroke-width="1.30296" stroke-miterlimit="10"/>
<path d="M456.076 196.519C454.497 195.551 452.817 194.794 451.073 194.263L449.049 184.4H440.452L438.449 194.263C436.695 194.785 435.007 195.542 433.425 196.519L425.661 191.097L419.587 197.7L424.47 206.169C423.577 207.896 422.882 209.736 422.402 211.649L413.362 213.835V223.213L422.402 225.422C422.876 227.344 423.571 229.194 424.47 230.926L419.501 239.454L425.586 246.08L433.392 240.659C434.971 241.637 436.655 242.399 438.405 242.927L440.419 252.778H448.984L450.998 242.927C452.743 242.393 454.422 241.632 456 240.659L456.4 240.942V196.282L456.076 196.519ZM444.772 230.773C442.574 230.773 440.426 230.061 438.599 228.729C436.772 227.397 435.348 225.504 434.507 223.289C433.667 221.074 433.448 218.636 433.877 216.285C434.307 213.934 435.366 211.775 436.92 210.08C438.475 208.386 440.456 207.233 442.611 206.766C444.767 206.3 447.001 206.542 449.03 207.461C451.06 208.38 452.794 209.935 454.014 211.93C455.233 213.924 455.883 216.268 455.881 218.666C455.881 220.256 455.593 221.832 455.035 223.301C454.476 224.771 453.658 226.106 452.626 227.231C451.595 228.355 450.37 229.247 449.022 229.854C447.674 230.462 446.23 230.774 444.772 230.773Z" fill="#263238"/>
<path d="M301.136 206.027V186.254L282.08 181.636C281.052 177.619 279.598 173.746 277.749 170.096L280.055 166.139H190.08L192.299 169.99C190.428 173.624 188.973 177.496 187.969 181.518L168.902 186.148V205.968L187.969 210.61C188.973 214.662 190.427 218.565 192.299 222.233L181.829 240.198L194.66 254.183L211.117 242.75C214.456 244.799 218.007 246.405 221.696 247.533L225.94 268.263H244.022L248.288 247.486C251.964 246.352 255.504 244.746 258.834 242.702L275.302 254.136L288.122 240.151L277.717 222.186C279.561 218.541 281.014 214.677 282.048 210.669L301.136 206.027ZM235.089 221.689C230.457 221.689 225.929 220.191 222.078 217.384C218.227 214.576 215.225 210.586 213.452 205.918C211.68 201.249 211.216 196.112 212.12 191.157C213.023 186.201 215.254 181.648 218.529 178.075C221.804 174.502 225.977 172.069 230.52 171.083C235.063 170.097 239.772 170.603 244.052 172.537C248.331 174.471 251.989 177.745 254.562 181.947C257.135 186.148 258.509 191.088 258.509 196.141C258.51 199.496 257.905 202.819 256.729 205.92C255.553 209.02 253.828 211.837 251.653 214.21C249.478 216.583 246.895 218.464 244.053 219.748C241.211 221.031 238.165 221.691 235.089 221.689Z" fill="#263238"/>
<path d="M180.876 341.803L181.645 326.105L166.736 321.522C166.044 318.296 165.019 315.166 163.683 312.191L172.691 298.395L163.033 286.713L149.542 294.981C146.963 293.211 144.206 291.772 141.324 290.694L138.747 274.015L124.368 273.295L120.211 289.607C117.248 290.332 114.377 291.442 111.657 292.914L99.0215 283.099L88.2916 293.623L95.9357 308.352C94.297 311.153 92.9737 314.159 91.9946 317.305L87.6636 318.085V339.346L90.8252 340.314C91.4811 343.551 92.4955 346.688 93.846 349.657L87.6311 359.166L88.0426 367.304V367.375L94.4632 375.135L107.976 366.808C110.55 368.614 113.317 370.07 116.215 371.143L118.749 387.159L118.868 387.833L133.247 388.66L133.626 387.159L137.405 372.359C140.38 371.633 143.266 370.522 146.001 369.052L158.615 378.856L169.334 368.343L161.755 353.602C163.379 350.805 164.684 347.803 165.642 344.661L180.876 341.803ZM142.688 317.293C140.225 314.305 137.005 312.18 133.435 311.188C129.865 310.197 126.105 310.382 122.632 311.722C119.159 313.061 116.128 315.495 113.922 318.714C111.717 321.933 110.436 325.793 110.242 329.807C110.048 333.82 110.95 337.806 112.833 341.26C114.716 344.714 117.495 347.482 120.82 349.212C124.145 350.943 127.866 351.559 131.512 350.982C135.158 350.405 138.565 348.662 141.302 345.972C144.957 342.37 147.155 337.335 147.415 331.969C147.675 326.603 145.975 321.343 142.688 317.341V317.293Z" fill="#263238"/>
<path d="M295.885 318.403C296.441 315.973 296.736 313.479 296.762 310.974L307.102 305.068L304.244 293.622L292.572 294.213C291.39 292.074 289.983 290.092 288.382 288.307L291.835 276.129L282.416 270.224L274.533 279.602C272.309 279.016 270.032 278.699 267.745 278.657L262.331 267.377L251.85 270.483L252.402 283.228C250.441 284.518 248.624 286.052 246.989 287.799L235.815 284.031L230.401 294.296L239.063 302.883C238.503 305.304 238.216 307.791 238.208 310.289L227.846 316.195L230.704 327.628L242.398 327.026C243.557 329.176 244.957 331.16 246.566 332.932L243.091 345.051L252.521 350.956L260.36 341.649C262.587 342.26 264.874 342.574 267.171 342.582L272.584 353.874L283.065 350.767L282.6 339.877L282.524 338.011C284.513 336.734 286.352 335.199 288.003 333.44L299.166 337.219L303.778 328.431L304.558 326.943L295.885 318.403ZM271.123 325.349C268.435 326.157 265.588 326.077 262.942 325.118C260.296 324.159 257.971 322.364 256.261 319.961C254.552 317.558 253.535 314.656 253.34 311.622C253.144 308.588 253.779 305.559 255.164 302.919C256.549 300.279 258.622 298.147 261.119 296.794C263.616 295.441 266.425 294.927 269.19 295.318C271.955 295.709 274.551 296.987 276.649 298.99C278.748 300.993 280.253 303.63 280.976 306.568C281.938 310.483 281.443 314.655 279.597 318.173C277.751 321.692 274.705 324.271 271.123 325.349Z" fill="#263238"/>
<path d="M415.765 338.531L418.147 322.821L403.574 316.431C403.243 313.083 402.541 309.791 401.484 306.627L411.976 293.882L403.487 280.89L389.022 287.587C386.62 285.487 383.996 283.71 381.204 282.295L380.36 265.18L365.959 262.582L360.059 278.409C357.003 278.801 353.999 279.574 351.104 280.712L339.389 269.267L327.533 278.527L333.683 294.296C331.99 296.601 330.521 299.091 329.298 301.725C329.136 302.092 328.962 302.458 328.811 302.824L313.133 303.769L310.74 319.455L313.1 320.494L325.314 325.869C325.647 329.201 326.349 332.477 327.403 335.625L316.89 348.452L325.389 361.445L339.844 354.713C342.238 356.831 344.859 358.624 347.65 360.051L348.462 377.084L362.852 379.682L368.742 363.973C371.805 363.608 374.815 362.839 377.707 361.681L389.401 373.127L401.311 363.855L395.161 348.074C397.12 345.452 398.775 342.576 400.087 339.511L415.765 338.531ZM375.379 337.822C372.35 340.193 368.744 341.531 365.017 341.666C361.291 341.802 357.611 340.728 354.444 338.582C351.277 336.436 348.764 333.313 347.224 329.609C345.683 325.905 345.185 321.785 345.79 317.772C346.396 313.759 348.08 310.031 350.627 307.062C353.175 304.092 356.473 302.013 360.104 301.088C363.735 300.163 367.536 300.434 371.025 301.865C374.515 303.297 377.538 305.826 379.71 309.131C382.62 313.566 383.797 319.08 382.98 324.46C382.164 329.84 379.422 334.647 375.358 337.822H375.379Z" fill="#263238"/>
<path d="M220.613 222.233H107.38C99.5409 222.233 93.1858 229.166 93.1858 237.718V408.739C93.1858 417.291 99.5409 424.224 107.38 424.224H220.613C228.453 424.224 234.808 417.291 234.808 408.739V237.718C234.808 229.166 228.453 222.233 220.613 222.233Z" fill="#407BFF" stroke="#263238" stroke-width="1.30296" stroke-miterlimit="10"/>
<path opacity="0.2" d="M220.613 222.233H107.38C99.5409 222.233 93.1858 229.166 93.1858 237.718V408.739C93.1858 417.291 99.5409 424.224 107.38 424.224H220.613C228.453 424.224 234.808 417.291 234.808 408.739V237.718C234.808 229.166 228.453 222.233 220.613 222.233Z" fill="black"/>
<path d="M247.985 252.979V424C247.986 426.034 247.62 428.049 246.907 429.929C246.195 431.81 245.149 433.518 243.831 434.957C242.513 436.396 240.947 437.538 239.225 438.317C237.502 439.096 235.655 439.497 233.79 439.497H120.557C118.693 439.495 116.848 439.093 115.126 438.314C113.405 437.534 111.841 436.392 110.523 434.953C109.206 433.514 108.162 431.806 107.45 429.927C106.738 428.047 106.372 426.033 106.374 424V252.979C106.374 248.874 107.868 244.937 110.527 242.033C113.187 239.13 116.795 237.497 120.557 237.494H233.79C237.555 237.494 241.165 239.125 243.827 242.029C246.489 244.933 247.985 248.872 247.985 252.979Z" fill="white" stroke="#263238" stroke-width="1.30296" stroke-linecap="round" stroke-linejoin="round"/>
<path d="M247.985 252.979V262.133H106.374V252.979C106.374 248.874 107.868 244.937 110.527 242.033C113.187 239.13 116.795 237.497 120.557 237.494H233.79C237.555 237.494 241.165 239.125 243.827 242.029C246.489 244.933 247.985 248.872 247.985 252.979Z" fill="#407BFF" stroke="#263238" stroke-width="1.30296" stroke-miterlimit="10"/>
<path d="M154.534 272.739H119.691V279.118H154.534V272.739Z" fill="#407BFF"/>
<path d="M154.534 329.896H119.691V336.275H154.534V329.896Z" fill="#407BFF"/>
<path d="M154.534 381.726H119.691V388.104H154.534V381.726Z" fill="#407BFF"/>
<path d="M218.642 288.532H119.691V293.209H218.642V288.532Z" fill="#263238"/>
<path d="M200.799 297.474H119.691V302.033H200.799V297.474Z" fill="#263238"/>
<path d="M211.421 306.273H119.691V310.832H211.421V306.273Z" fill="#263238"/>
<path d="M211.421 315.061H119.691V319.62H211.421V315.061Z" fill="#263238"/>
<path d="M218.642 340.361H119.691V345.039H218.642V340.361Z" fill="#263238"/>
<path d="M200.799 349.303H119.691V353.862H200.799V349.303Z" fill="#263238"/>
<path d="M211.421 358.103H119.691V362.662H211.421V358.103Z" fill="#263238"/>
<path d="M218.642 397.27H119.691V401.947H218.642V397.27Z" fill="#263238"/>
<path d="M200.799 406.224H119.691V410.783H200.799V406.224Z" fill="#263238"/>
<path d="M211.421 415.023H119.691V419.582H211.421V415.023Z" fill="#263238"/>
<path d="M407.591 118.904V188.026C407.591 190.451 407.153 192.853 406.302 195.094C405.45 197.334 404.203 199.37 402.63 201.085C401.058 202.799 399.191 204.159 397.136 205.086C395.082 206.013 392.88 206.489 390.657 206.488H244.726C242.502 206.489 240.3 206.013 238.246 205.086C236.192 204.159 234.325 202.799 232.752 201.085C231.179 199.37 229.932 197.334 229.081 195.094C228.23 192.853 227.792 190.451 227.792 188.026V118.904C227.794 114.006 229.579 109.309 232.755 105.845C235.93 102.381 240.235 100.434 244.726 100.431H390.657C395.148 100.431 399.455 102.377 402.631 105.841C405.807 109.306 407.591 114.005 407.591 118.904Z" fill="white" stroke="#222221" stroke-width="1.30296" stroke-miterlimit="10"/>
<path d="M407.591 118.904V120.487H227.792V118.904C227.794 114.006 229.579 109.309 232.755 105.845C235.93 102.381 240.235 100.434 244.726 100.431H390.657C395.148 100.431 399.455 102.377 402.631 105.841C405.807 109.306 407.591 114.005 407.591 118.904Z" fill="#407BFF" stroke="#263238" stroke-width="1.30296" stroke-miterlimit="10"/>
<path d="M254.21 113.766C253.847 114.163 253.384 114.434 252.88 114.544C252.376 114.654 251.853 114.598 251.378 114.384C250.902 114.169 250.496 113.806 250.21 113.34C249.925 112.873 249.772 112.325 249.772 111.764C249.772 111.203 249.925 110.655 250.21 110.188C250.496 109.722 250.902 109.359 251.378 109.144C251.853 108.93 252.376 108.874 252.88 108.984C253.384 109.094 253.847 109.365 254.21 109.762C254.694 110.295 254.965 111.014 254.965 111.764C254.965 112.514 254.694 113.233 254.21 113.766Z" fill="#263238"/>
<path d="M266.25 113.766C265.887 114.163 265.424 114.434 264.92 114.544C264.416 114.654 263.893 114.598 263.418 114.384C262.942 114.169 262.536 113.806 262.25 113.34C261.965 112.873 261.812 112.325 261.812 111.764C261.812 111.203 261.965 110.655 262.25 110.188C262.536 109.722 262.942 109.359 263.418 109.144C263.893 108.93 264.416 108.874 264.92 108.984C265.424 109.094 265.887 109.365 266.25 109.762C266.734 110.295 267.005 111.014 267.005 111.764C267.005 112.514 266.734 113.233 266.25 113.766Z" fill="#263238"/>
<path d="M278.29 113.766C277.927 114.163 277.464 114.434 276.96 114.544C276.456 114.654 275.933 114.598 275.458 114.384C274.983 114.169 274.576 113.806 274.291 113.34C274.005 112.873 273.852 112.325 273.852 111.764C273.852 111.203 274.005 110.655 274.291 110.188C274.576 109.722 274.983 109.359 275.458 109.144C275.933 108.93 276.456 108.874 276.96 108.984C277.464 109.094 277.927 109.365 278.29 109.762C278.774 110.295 279.045 111.014 279.045 111.764C279.045 112.514 278.774 113.233 278.29 113.766Z" fill="#263238"/>
<path d="M298.029 133.196H239.258V188.617H298.029V133.196Z" stroke="#263238" stroke-width="1.30296" stroke-linecap="round" stroke-linejoin="round" stroke-dasharray="5.21 5.21"/>
<path d="M374.74 133.196H307.102V137.094H374.74V133.196Z" fill="#263238"/>
<path d="M358.987 141.264H307.102V145.15H358.987V141.264Z" fill="#263238"/>
<path d="M384.355 149.296H307.102V153.229H384.355V149.296Z" fill="#263238"/>
<path d="M372.889 157.127H307.102V161.06H372.889V157.127Z" fill="#263238"/>
<path d="M412.506 290.457H379.429C375.524 290.457 372.358 293.91 372.358 298.17V319.348C372.358 323.608 375.524 327.061 379.429 327.061H412.506C416.411 327.061 419.577 323.608 419.577 319.348V298.17C419.577 293.91 416.411 290.457 412.506 290.457Z" fill="white" stroke="#263238" stroke-width="1.30296" stroke-linecap="round" stroke-linejoin="round"/>
<path d="M387.593 301.465L378.509 307.678L386.943 315.828" stroke="#263238" stroke-width="1.30296" stroke-linecap="round" stroke-linejoin="round"/>
<path d="M404.137 316.419L412.301 308.836L402.881 302.104" stroke="#263238" stroke-width="1.30296" stroke-linecap="round" stroke-linejoin="round"/>
<path d="M392.01 321.096L398.712 298.158" stroke="#263238" stroke-width="1.30296" stroke-linecap="round" stroke-linejoin="round"/>
<path d="M322.152 520.714C322.152 520.714 290.752 530.529 286.367 532.23C282.383 533.766 271.577 537.9 263.468 536.612C262.685 536.489 261.91 536.308 261.15 536.069C252.933 533.399 249.24 530.907 248.158 525.273C247.075 519.639 251.168 515.481 255.109 512.824C259.05 510.166 280.423 507.39 280.423 507.39L285.588 509.044L322.152 520.714Z" fill="#407BFF"/>
<path d="M263.468 536.612C262.685 536.489 261.91 536.308 261.15 536.069C252.933 533.399 249.24 530.907 248.158 525.273C247.075 519.639 251.168 515.481 255.109 512.824C259.05 510.166 280.423 507.39 280.423 507.39L285.588 509.044C280.91 511.406 263.5 512.694 259.7 515.08C255.899 517.466 254.069 521.954 256.311 528.072C257.512 531.262 260.717 534.392 263.468 536.612Z" fill="white"/>
<path d="M317.431 522.108C317.431 522.108 293.849 528.77 284.494 533.034C275.139 537.298 257.307 539.164 250.93 530.376C244.552 521.588 250.193 514.005 256.549 512.316C262.905 510.627 275.757 507.97 282.773 509.044" stroke="#263238" stroke-width="1.30296" stroke-linecap="round" stroke-linejoin="round"/>
<path d="M263.933 536.152C263.933 536.152 251.937 528.97 255.921 518.907C258.866 511.489 274.869 513.095 282.795 509.044" stroke="#263238" stroke-width="1.30296" stroke-linecap="round" stroke-linejoin="round"/>
<path d="M417.79 538.207C417.465 541.751 416.328 545.07 413.08 547.16C410.915 548.554 407.84 549.381 403.433 549.334C392.421 549.18 371.72 540.593 371.72 540.593L352.339 528.9L362.419 511.501L365.18 506.776L372.304 508.524C372.304 508.524 378.205 512.174 384.138 515.08C390.072 517.986 404.483 518.623 409.561 523.076C414.639 527.529 418.342 532.372 417.79 538.207Z" fill="#407BFF"/>
<path d="M417.79 538.207C417.465 541.751 416.328 545.07 413.08 547.16C414.016 543.677 413.825 539.949 412.539 536.601C410.373 531.297 403.325 526.62 394.056 525.84C384.788 525.061 377.696 520.336 373.982 518.222C371.081 516.58 364.963 512.989 362.419 511.501L365.18 506.776L372.304 508.524C372.304 508.524 378.205 512.174 384.138 515.08C390.072 517.986 404.483 518.623 409.561 523.076C414.639 527.529 418.342 532.372 417.79 538.207Z" fill="white"/>
<path d="M356.637 532.183C370.588 541.03 386.007 546.774 402.004 549.086C405.534 549.546 409.637 549.617 411.997 546.723C412.625 545.888 413.093 544.922 413.372 543.886C413.651 542.849 413.736 541.761 413.622 540.688C413.199 535.254 409.009 530.955 404.418 528.793C399.828 526.632 394.771 526.136 389.888 524.943C385.032 523.748 380.337 521.874 375.921 519.367C372.413 517.371 369.024 514.95 365.158 514.052C361.293 513.155 356.691 514.241 354.623 517.926" stroke="#263238" stroke-width="1.30296" stroke-linecap="round" stroke-linejoin="round"/>
<path d="M410.698 548.2C412.512 547.253 414.098 545.856 415.33 544.121C416.561 542.386 417.403 540.361 417.79 538.207C418.494 533.093 415.819 527.943 412.062 524.801C408.305 521.659 403.595 520.171 398.95 519.12C394.306 518.069 389.552 517.36 385.102 515.435C378.313 512.529 371.611 506.812 364.53 508.855" stroke="#263238" stroke-width="1.30296" stroke-linecap="round" stroke-linejoin="round"/>
<path d="M378.508 349.197L345.712 335.59L345.301 335.413C345.301 335.413 345.42 334.468 345.517 333.05C345.723 330.192 345.831 325.538 344.597 323.967C342.767 321.605 337.592 323.589 332.535 321.062C327.479 318.534 318.135 323.058 318.135 323.058C318.135 323.058 311.379 321.699 308.39 327.015C306.874 331.302 307.394 337.645 307.394 337.645L306.777 337.881C302.868 339.476 281.603 348.205 277.11 351.713C272.14 355.552 266.64 394.967 264.875 406.543C263.11 418.118 259.97 428.548 261.562 432.528C263.153 436.509 285.999 455.703 299.144 460.652C312.288 465.601 358.9 464.195 358.9 464.195C358.9 464.195 359.658 463.971 361.011 463.499C368.893 460.735 396.861 449.325 411.705 422.536C411.727 422.583 397.348 371.167 378.508 349.197ZM289.897 415.496C287.483 417.362 288.814 424.591 288.814 424.591L284.711 420.646L295.018 392.995L299.414 414.256C299.414 414.256 292.312 413.642 289.897 415.496ZM372.358 433.06C371.221 433.698 375.606 420.41 373.528 417.398C371.449 414.386 365.18 414.669 365.18 414.669L365.71 411.043L369.424 390.254L370.658 388.66C370.658 388.66 383.413 412.508 385.698 420.918C385.698 420.941 371.795 433.06 372.358 433.06Z" fill="#407BFF"/>
<path d="M316.586 262.96L299.652 282.567C299.652 282.567 297.325 284.823 298.245 290.505C299.165 296.186 301.331 301.135 302.966 301.466C304.26 301.713 305.571 301.84 306.885 301.844C306.885 301.844 310.512 310.419 313.089 313.786C313.089 313.786 313.977 327.026 313.501 330.7C313.501 330.7 319.586 336.499 325.313 337.232C331.041 337.964 339.887 328.397 339.887 328.397L342.052 316.679C342.052 316.679 347.25 308.081 347.596 305.789C347.943 303.498 350.325 304.088 351.494 302.954C352.663 301.82 355.359 296.777 355.825 292.005C356.29 287.233 356.301 281.752 351.223 283.359C346.816 282.071 349.577 271.913 349.577 271.913L341.836 264.472L316.586 262.96Z" fill="white"/>
<path opacity="0.5" d="M345.712 335.59C345.457 336.32 345.164 337.034 344.835 337.728C342.042 343.468 329.872 354.418 329.872 354.418L326.19 342.074L324.177 354.418C320.116 352.48 307.73 340.775 307.73 340.775C307.73 340.775 307.308 339.677 306.799 337.964L307.416 337.728C307.416 337.728 306.896 331.338 308.412 327.097C311.379 321.782 318.157 323.14 318.157 323.14C318.157 323.14 327.501 318.616 332.557 321.144C337.613 323.672 342.789 321.711 344.619 324.05C346.448 326.389 345.322 335.46 345.322 335.46L345.712 335.59Z" fill="white"/>
<path opacity="0.2" d="M378.508 349.197L345.712 335.59L345.301 335.413C345.301 335.413 345.42 334.468 345.517 333.05L344.835 337.692L339.984 344.874C345.17 346.957 350.232 349.386 355.143 352.15C357.494 353.523 359.412 355.637 360.647 358.215C361.883 360.793 362.38 363.717 362.072 366.607L356.031 423.008L353.551 455.029L361.033 463.498C368.915 460.734 396.882 449.324 411.727 422.536C411.727 422.583 397.348 371.167 378.508 349.197ZM372.358 433.06C371.221 433.698 375.606 420.409 373.528 417.397C371.449 414.385 365.18 414.669 365.18 414.669L365.71 411.043L369.424 390.254L370.658 388.66C370.658 388.66 383.413 412.507 385.698 420.917C385.698 420.941 371.795 433.06 372.358 433.06Z" fill="black"/>
<path opacity="0.2" d="M301.591 417.397L296.491 398.806C296.491 398.806 287.342 364.776 281.073 356.39L282.719 380.321C282.719 380.321 277.305 408.905 272.357 417.397C267.409 425.89 266.304 428.028 272.357 428.028C278.409 428.028 293.145 440.832 293.145 440.832L292.009 430.201L301.591 417.397ZM288.739 424.591L284.635 420.646L294.943 392.994L299.339 414.255C299.339 414.255 292.279 413.677 289.865 415.531C287.45 417.386 288.739 424.591 288.739 424.591Z" fill="black"/>
<path d="M313.089 313.786C313.089 313.786 314.02 323.814 313.089 328.397" stroke="#263238" stroke-width="1.30296" stroke-linecap="round" stroke-linejoin="round"/>
<path d="M340.829 327.05C340.839 323.825 341.181 320.612 341.847 317.471" stroke="#263238" stroke-width="1.30296" stroke-linecap="round" stroke-linejoin="round"/>
<path d="M343.287 270.437C343.287 270.437 348.852 278.055 348.56 283.819C348.267 289.583 347.856 296.41 347.997 303.096C348.137 309.781 338.155 323.79 333.022 325.03C327.89 326.27 323.473 326.589 320.192 323.01C316.911 319.431 313.631 314.459 309.365 308.08C305.099 301.702 306.116 287.705 306.116 287.705" stroke="#263238" stroke-width="1.30296" stroke-linecap="round" stroke-linejoin="round"/>
<path d="M329.883 293.032C329.544 295.125 329.399 297.25 329.45 299.375C329.338 301.166 329.848 302.937 330.879 304.336C331.496 305.021 332.384 305.576 332.503 306.521C332.5 306.947 332.392 307.363 332.19 307.727C331.988 308.091 331.699 308.388 331.355 308.588C330.661 308.97 329.992 309.404 329.352 309.888" stroke="#263238" stroke-width="1.30296" stroke-linecap="round" stroke-linejoin="round"/>
<path d="M321.08 310.62C321.08 310.62 321.719 315.144 327.273 316.089" stroke="#263238" stroke-width="1.30296" stroke-linecap="round" stroke-linejoin="round"/>
<path d="M321.654 296.481C321.654 297.793 321.134 298.844 320.495 298.844C319.856 298.844 319.337 297.793 319.337 296.481C319.337 295.17 319.856 294.119 320.495 294.119C321.134 294.119 321.654 295.182 321.654 296.481Z" fill="#263238"/>
<path d="M338.231 297.048C338.231 298.359 337.711 299.411 337.072 299.411C336.433 299.411 335.913 298.348 335.913 297.048C335.913 295.749 336.433 294.686 337.072 294.686C337.711 294.686 338.231 295.737 338.231 297.048Z" fill="#263238"/>
<path d="M334.885 291.32C334.885 291.32 340.299 285.414 344.835 292.005" stroke="#263238" stroke-width="2.6059" stroke-linecap="round" stroke-linejoin="round"/>
<path d="M323.484 291.438C323.484 291.438 320.062 287.257 314.67 291.438" stroke="#263238" stroke-width="2.6059" stroke-linecap="round" stroke-linejoin="round"/>
<path d="M313.501 319.36C313.501 319.36 316.803 329.282 324.176 332.105C331.55 334.928 341.338 320.293 341.338 320.293L340.829 318.392C340.829 318.392 334.408 327.487 327.273 325.939C320.138 324.392 313.089 313.833 313.089 313.833L313.501 319.36Z" fill="#263238"/>
<path d="M306.885 301.466C306.885 301.466 302.489 303.155 301.32 299.423C300.151 295.69 296.145 285.851 299.653 282.567C303.161 279.284 305.976 286.902 305.976 286.902" stroke="#263238" stroke-width="1.30296" stroke-linecap="round" stroke-linejoin="round"/>
<path d="M347.986 303.498C347.986 303.498 352.068 304.395 353.237 300.663C354.406 296.93 358.413 287.091 354.904 283.807C351.396 280.524 348.581 288.142 348.581 288.142" stroke="#263238" stroke-width="1.30296" stroke-linecap="round" stroke-linejoin="round"/>
<path d="M305.976 296.482C307.503 296.219 308.881 295.332 309.83 294.001C310.41 292.833 310.778 291.553 310.913 290.233C311.315 287.721 311.518 285.176 311.519 282.626C311.472 281.63 311.556 280.632 311.768 279.662C312.093 278.685 312.594 277.79 313.241 277.028C314.768 275.067 316.619 273.413 318.081 271.382C318.864 270.423 319.46 269.3 319.833 268.082C320.205 266.863 320.346 265.575 320.246 264.295C323.596 267.308 327.51 269.483 331.713 270.669C335.916 271.855 340.307 272.021 344.575 271.157C352.317 269.504 359.734 262.098 358.835 252.79C358.665 251.23 358.052 249.766 357.081 248.605C356.11 247.444 354.83 246.644 353.421 246.317C349.599 245.278 346.167 247.499 342.702 248.928C336.39 251.526 330.207 247.061 323.83 246.317C318.416 245.668 311.671 246.412 308.834 252.33C308.834 252.33 299.09 253.582 294.759 262.369C290.428 271.157 298.624 283.312 298.624 283.312C298.624 283.312 301.872 278.965 306.127 287.753L305.976 296.482Z" fill="#263238"/>
<path d="M343.958 268.193C343.958 268.193 341.425 282.603 348.04 289.584C348.04 289.584 349.491 285.249 350.953 284.186C352.006 281.628 352.453 278.822 352.25 276.027C352.048 273.232 351.203 270.538 349.794 268.193C344.9 259.806 343.958 268.193 343.958 268.193Z" fill="#263238"/>
<path opacity="0.2" d="M356.02 251.798C355.439 253.764 354.454 255.56 353.141 257.048C351.827 258.536 350.22 259.677 348.441 260.385C339.259 264.472 330.348 259.948 321.145 259.062C313.641 258.33 305.358 265.724 304.828 274.134" stroke="white" stroke-width="1.30296" stroke-linecap="round" stroke-linejoin="round"/>
<path opacity="0.2" d="M299.165 271.913C299.278 268.594 300.254 265.379 301.979 262.643C303.705 259.907 306.109 257.764 308.91 256.463" stroke="white" stroke-width="1.30296" stroke-linecap="round" stroke-linejoin="round"/>
<path d="M310.967 327.05C315.005 331.64 319.876 335.261 325.27 337.68C325.27 337.68 336.26 334.196 341.847 325.869" stroke="#263238" stroke-width="1.30296" stroke-linecap="round" stroke-linejoin="round"/>
<path d="M322.198 306.099C327.079 303.657 329.221 297.361 326.982 292.036C324.743 286.711 318.972 284.375 314.091 286.817C309.21 289.259 307.068 295.556 309.307 300.88C311.545 306.205 317.317 308.542 322.198 306.099Z" stroke="#263238" stroke-width="1.30296" stroke-linecap="round" stroke-linejoin="round"/>
<path d="M341.039 307.033C346.369 306.319 350.159 301.026 349.504 295.212C348.85 289.398 343.999 285.263 338.669 285.977C333.339 286.691 329.549 291.983 330.203 297.797C330.858 303.612 335.709 307.746 341.039 307.033Z" stroke="#263238" stroke-width="1.30296" stroke-linecap="round" stroke-linejoin="round"/>
<path d="M313.089 323.093C312.104 323.375 311.181 323.871 310.376 324.551C309.57 325.231 308.899 326.081 308.401 327.05C306.68 330.357 307.719 340.764 307.719 340.764C307.719 340.764 316.608 350.355 324.177 354.406L326.407 340.716L329.872 354.406C329.872 354.406 341.587 345.37 344.835 337.728C344.835 337.728 345.918 328.81 344.835 325.916C344.589 325.112 344.121 324.412 343.494 323.91C342.868 323.409 342.115 323.132 341.338 323.117" stroke="#263238" stroke-width="1.30296" stroke-linecap="round" stroke-linejoin="round"/>
<path d="M299.165 414.681C299.165 414.681 295.69 389.286 291.067 378.927" stroke="#263238" stroke-width="1.30296" stroke-linecap="round" stroke-linejoin="round"/>
<path d="M281.073 356.39C283.765 360.564 286.168 364.95 288.262 369.513" stroke="#263238" stroke-width="1.30296" stroke-linecap="round" stroke-linejoin="round"/>
<path d="M372.358 375.347C373.292 371.101 374.571 366.955 376.18 362.957" stroke="#263238" stroke-width="1.30296" stroke-linecap="round" stroke-linejoin="round"/>
<path d="M365.18 414.681C365.18 414.681 367.681 397.271 370.669 382.931" stroke="#263238" stroke-width="1.30296" stroke-linecap="round" stroke-linejoin="round"/>
<path d="M369.424 390.231C371.842 386.734 375.241 384.195 379.104 383.002" stroke="#263238" stroke-width="1.30296" stroke-linecap="round" stroke-linejoin="round"/>
<path d="M345.311 335.413C345.311 335.413 365.483 344.212 378.508 349.209C378.508 349.209 394.533 365.639 411.716 422.583C411.716 422.583 395.973 451.474 366.024 460.734" stroke="#263238" stroke-width="1.30296" stroke-linecap="round" stroke-linejoin="round"/>
<path d="M371.222 434.087L385.698 420.941C385.698 420.941 393.353 414.598 401.311 418.933" stroke="#263238" stroke-width="1.30296" stroke-linecap="round" stroke-linejoin="round"/>
<path d="M370.669 388.66C370.669 388.66 382.634 407.948 385.698 420.941" stroke="#263238" stroke-width="1.30296" stroke-linecap="round" stroke-linejoin="round"/>
<path d="M288.901 425.323L284.668 420.941C284.668 420.941 278.388 419.76 271.263 424.945" stroke="#263238" stroke-width="1.30296" stroke-linecap="round" stroke-linejoin="round"/>
<path d="M284.667 420.941C284.667 420.941 289.93 402.042 295.116 392.368" stroke="#263238" stroke-width="1.30296" stroke-linecap="round" stroke-linejoin="round"/>
<path d="M307.416 337.728C307.416 337.728 278.388 349.611 275.54 353.083C272.692 356.556 261.876 422.996 261.584 430.603C261.335 437.407 283.942 452.679 295.148 459.117" stroke="#263238" stroke-width="1.30296" stroke-linecap="round" stroke-linejoin="round"/>
<path d="M329.125 360.182C329.125 360.595 329.012 361 328.802 361.344C328.591 361.687 328.292 361.955 327.942 362.114C327.592 362.272 327.206 362.313 326.834 362.232C326.463 362.152 326.121 361.953 325.853 361.66C325.585 361.368 325.403 360.995 325.329 360.59C325.255 360.184 325.293 359.764 325.438 359.382C325.583 359 325.828 358.673 326.144 358.444C326.459 358.214 326.829 358.091 327.208 358.091C327.46 358.09 327.71 358.143 327.943 358.247C328.177 358.352 328.388 358.506 328.567 358.7C328.745 358.895 328.886 359.126 328.982 359.38C329.078 359.634 329.126 359.907 329.125 360.182Z" fill="#263238"/>
<path d="M362.711 471.471H296.664C296.254 471.471 295.86 471.293 295.569 470.977C295.279 470.66 295.116 470.23 295.116 469.782C295.116 469.334 295.279 468.905 295.569 468.588C295.86 468.271 296.254 468.093 296.664 468.093H362.711C363.122 468.093 363.516 468.271 363.806 468.588C364.096 468.905 364.259 469.334 364.259 469.782C364.259 470.23 364.096 470.66 363.806 470.977C363.516 471.293 363.122 471.471 362.711 471.471Z" fill="#263238"/>
<path d="M365.028 465.825L373.874 420.469C374.012 419.765 374.003 419.038 373.849 418.338C373.695 417.639 373.399 416.987 372.984 416.428C372.569 415.87 372.044 415.42 371.449 415.112C370.853 414.803 370.202 414.644 369.543 414.646H292.344C291.691 414.646 291.045 414.804 290.455 415.109C289.864 415.414 289.343 415.858 288.928 416.41C288.514 416.961 288.217 417.606 288.059 418.297C287.901 418.989 287.885 419.711 288.013 420.41L295.95 464.255C296.144 465.331 296.67 466.303 297.44 467.01C298.209 467.717 299.177 468.116 300.183 468.141L360.589 469.652C361.621 469.677 362.63 469.309 363.44 468.61C364.25 467.912 364.812 466.927 365.028 465.825Z" fill="white" stroke="#263238" stroke-width="1.30296" stroke-linecap="round" stroke-linejoin="round"/>
<path d="M336.855 440.82C336.853 442.149 336.49 443.447 335.812 444.551C335.134 445.654 334.171 446.514 333.045 447.021C331.919 447.528 330.68 447.659 329.486 447.399C328.292 447.138 327.195 446.497 326.334 445.556C325.474 444.616 324.888 443.418 324.651 442.115C324.415 440.812 324.537 439.461 325.004 438.234C325.47 437.006 326.26 435.957 327.273 435.219C328.286 434.481 329.477 434.087 330.695 434.087C331.505 434.087 332.307 434.262 333.055 434.6C333.803 434.939 334.483 435.435 335.055 436.06C335.627 436.685 336.081 437.428 336.389 438.244C336.698 439.061 336.857 439.936 336.855 440.82Z" fill="#263238"/>
<path d="M348.971 418.98H358.142" stroke="#263238" stroke-width="1.30296" stroke-linecap="round" stroke-linejoin="round"/>
<path d="M305.175 418.98H339.985" stroke="#263238" stroke-width="1.30296" stroke-linecap="round" stroke-linejoin="round"/>
<path d="M365.18 513.981L358.142 534.132C358.142 534.132 340.19 529.195 317.204 524.057C293.156 518.682 268.048 511.725 255.022 486.791C253.441 483.755 252.38 480.165 253.127 476.763C255.001 468.152 265.276 465.813 272.043 464.951C276.297 464.449 280.573 464.189 284.852 464.172C287.017 464.172 294.217 462.884 295.961 464.29C298.58 466.374 301.375 468.182 304.308 469.688C308.152 471.471 364.26 468.093 364.26 468.093C365.236 465.771 365.833 463.281 366.024 460.734C374.849 455.844 395.258 451.71 403.92 453.541C417.487 456.411 425.402 465.046 423.897 474.093C422.392 483.141 392.422 507.402 365.18 513.981Z" fill="#263238"/>
<path d="M365.18 513.982C365.18 513.982 348.105 509.044 334.159 498.768C320.214 488.492 309.321 476.562 289.886 479.031" stroke="white" stroke-width="1.30296" stroke-linecap="round" stroke-linejoin="round"/>
<path d="M330.965 496.347C339.779 493.583 346.243 487.358 353.313 481.393C360.77 474.864 368.779 469.121 377.231 464.243" stroke="white" stroke-width="1.30296" stroke-linecap="round" stroke-linejoin="round"/>
<path d="M327.858 298.159H330.446" stroke="#263238" stroke-width="1.30296" stroke-linecap="round" stroke-linejoin="round"/>
</svg>
