<svg width="42" height="42" viewBox="0 0 42 42" fill="none" xmlns="http://www.w3.org/2000/svg">
<g id="icon/c-plus-plus">
<path id="Vector" d="M35.6138 12.5625C35.3955 12.165 35.0751 11.8329 34.6856 11.6006L22.2994 4.44561C21.898 4.23705 21.4523 4.12817 21 4.12817C20.5477 4.12817 20.102 4.23705 19.7006 4.44561L7.31439 11.6006C6.93488 11.8444 6.61902 12.1752 6.39302 12.5655C6.16703 12.9559 6.03744 13.3945 6.01501 13.845V28.155C6.02725 28.6072 6.15506 29.0487 6.38626 29.4375C6.60454 29.835 6.92493 30.167 7.31439 30.3994L19.7006 37.5544C20.102 37.7629 20.5477 37.8718 21 37.8718C21.4523 37.8718 21.898 37.7629 22.2994 37.5544L34.6856 30.3994C35.0751 30.167 35.3955 29.835 35.6138 29.4375C35.845 29.0487 35.9728 28.6072 35.985 28.155V13.845C35.9728 13.3928 35.845 12.9513 35.6138 12.5625ZM21 30.99C19.2516 30.9822 17.5359 30.5156 16.0243 29.637C14.5127 28.7584 13.2582 27.4984 12.3861 25.983C11.514 24.4676 11.0549 22.7499 11.0547 21.0015C11.0544 19.2531 11.513 17.5353 12.3847 16.0196C13.2564 14.504 14.5105 13.2437 16.0219 12.3646C17.5332 11.4855 19.2488 11.0185 20.9972 11.0102C22.7455 11.0019 24.4655 11.4526 25.9851 12.3172C27.5048 13.1819 28.7709 14.4302 29.6569 15.9375L27.75 17.1356L27.1425 17.4731L25.455 18.5025C24.9162 17.5034 24.0573 16.7143 23.0162 16.2621C21.975 15.8098 20.8121 15.7206 19.7142 16.0087C18.6162 16.2968 17.647 16.9455 16.9621 17.8507C16.2771 18.7559 15.9163 19.8651 15.9375 21C15.9327 21.8782 16.166 22.7413 16.6125 23.4975C17.0638 24.2414 17.6991 24.8565 18.4573 25.2833C19.2155 25.7102 20.0709 25.9344 20.941 25.9344C21.811 25.9344 22.6664 25.7102 23.4246 25.2833C24.1828 24.8565 24.8181 24.2414 25.2694 23.4975L29.6569 26.0625C28.7685 27.5671 27.5024 28.8133 25.9838 29.6777C24.4653 30.542 22.7473 30.9944 21 30.99ZM30.99 21.5569H29.8763V22.6875H28.7794V21.5737H27.75V20.46H28.8638V19.3125H29.9606V20.4262H31.0744L30.99 21.5569ZM35.1581 21.5569H34.0444V22.6875H32.9306V21.5737H31.8338V20.46H32.9306V19.3125H34.0444V20.4262H35.1581V21.5569Z" fill="#1B1F84"/>
</g>
</svg>
