<svg width="74" height="74" viewBox="0 0 74 74" fill="none" xmlns="http://www.w3.org/2000/svg">
<g id="icon/code">
<path id="Vector" d="M62.0633 10.0824H13.4557C10.1048 10.0824 7.37972 12.8075 7.37972 16.1583V58.69C7.37972 62.0409 10.1048 64.7659 13.4557 64.7659H62.0633C65.4142 64.7659 68.1392 62.0409 68.1392 58.69V16.1583C68.1392 12.8075 65.4142 10.0824 62.0633 10.0824ZM13.4557 58.69V22.2343H62.0633L62.0693 58.69H13.4557Z" fill="white"/>
<path id="Vector_2" d="M30.0339 29.2004L18.7721 40.4622L30.0339 51.724L34.3296 47.4283L27.3635 40.4622L34.3296 33.4961L30.0339 29.2004ZM46.4815 29.2004L42.1858 33.4961L49.1519 40.4622L42.1858 47.4283L46.4815 51.724L57.7433 40.4622L46.4815 29.2004Z" fill="white"/>
</g>
</svg>
