<svg width="74" height="73" viewBox="0 0 74 73" fill="none" xmlns="http://www.w3.org/2000/svg">
<g id="icon/design">
<path id="Vector" d="M61.3038 9.13306H21.8101C18.4592 9.13306 15.7342 11.8581 15.7342 15.209V21.285H12.6962C9.3453 21.285 6.62024 24.01 6.62024 27.3609V57.7407C6.62024 61.0915 9.3453 63.8166 12.6962 63.8166H30.924C34.2749 63.8166 37 61.0915 37 57.7407H61.3038C64.6547 57.7407 67.3797 55.0156 67.3797 51.6647V15.209C67.3797 11.8581 64.6547 9.13306 61.3038 9.13306ZM18.7721 27.3609H30.924L30.9149 54.7027H12.6962V27.3609H18.7721ZM37 51.6647V27.3609C37 24.01 34.2749 21.285 30.924 21.285H21.8101V15.209H55.2278V51.6647H37Z" fill="white"/>
</g>
</svg>
