<svg width="42" height="42" viewBox="0 0 42 42" fill="none" xmlns="http://www.w3.org/2000/svg">
<g id="icon/docker">
<path id="Vector" d="M34.7869 17.3212C34.3118 17.3186 33.8374 17.3581 33.3694 17.4394C33.2472 16.7004 32.9687 15.996 32.5525 15.3733C32.1364 14.7506 31.5922 14.2238 30.9562 13.8281L30.4838 13.5581L30.1631 14.0137C29.7605 14.6273 29.4691 15.3071 29.3025 16.0219C29.1359 16.6514 29.0994 17.3082 29.1952 17.9523C29.2909 18.5964 29.5169 19.2143 29.8594 19.7681C29.0866 20.1126 28.2573 20.3127 27.4125 20.3587H5.18813C4.90907 20.3587 4.64119 20.4684 4.44229 20.6641C4.24339 20.8599 4.12943 21.126 4.125 21.405C4.10423 23.3552 4.4358 25.2932 5.10375 27.1256C5.70336 28.926 6.89238 30.4717 8.47875 31.5131C10.7845 32.6835 13.3545 33.2358 15.9375 33.1162C17.3052 33.1399 18.6721 33.0382 20.0213 32.8125C21.9123 32.4739 23.7323 31.8178 25.4044 30.8719C26.7849 30.0348 28.0214 28.9807 29.0663 27.75C30.6245 25.9168 31.8419 23.8193 32.6606 21.5569H32.9812C33.6712 21.5824 34.3593 21.4702 35.0055 21.2268C35.6516 20.9834 36.2427 20.6137 36.7444 20.1394C37.1824 19.7311 37.5227 19.2292 37.74 18.6712L37.875 18.3L37.5375 18.03C36.72 17.5056 35.756 17.2571 34.7869 17.3212Z" fill="#1B1F84"/>
<path id="Vector_2" d="M10.2169 16.528H7.24687C7.17809 16.5279 7.11185 16.554 7.06168 16.6011C7.0115 16.6481 6.98117 16.7125 6.97687 16.7812V19.4474C6.98117 19.5161 7.0115 19.5805 7.06168 19.6275C7.11185 19.6746 7.17809 19.7007 7.24687 19.7005H10.2169C10.2856 19.7007 10.3519 19.6746 10.4021 19.6275C10.4522 19.5805 10.4826 19.5161 10.4869 19.4474V16.7812C10.4826 16.7125 10.4522 16.6481 10.4021 16.6011C10.3519 16.554 10.2856 16.5279 10.2169 16.528ZM14.3344 16.528H11.3475C11.2787 16.5279 11.2125 16.554 11.1623 16.6011C11.1121 16.6481 11.0818 16.7125 11.0775 16.7812V19.4474C11.0818 19.5161 11.1121 19.5805 11.1623 19.6275C11.2125 19.6746 11.2787 19.7007 11.3475 19.7005H14.3344C14.4015 19.7005 14.4659 19.6739 14.5134 19.6264C14.5608 19.5789 14.5875 19.5145 14.5875 19.4474V16.7812C14.5875 16.714 14.5608 16.6496 14.5134 16.6022C14.4659 16.5547 14.4015 16.528 14.3344 16.528ZM18.5025 16.528H15.5156C15.4485 16.528 15.3841 16.5547 15.3366 16.6022C15.2892 16.6496 15.2625 16.714 15.2625 16.7812V19.4474C15.2625 19.5145 15.2892 19.5789 15.3366 19.6264C15.3841 19.6739 15.4485 19.7005 15.5156 19.7005H18.5025C18.5696 19.7005 18.634 19.6739 18.6815 19.6264C18.7289 19.5789 18.7556 19.5145 18.7556 19.4474V16.7812C18.7556 16.714 18.7289 16.6496 18.6815 16.6022C18.634 16.5547 18.5696 16.528 18.5025 16.528ZM19.6331 16.528C19.5948 16.5174 19.5545 16.516 19.5154 16.5238C19.4764 16.5317 19.4398 16.5486 19.4086 16.5733C19.3774 16.5979 19.3524 16.6296 19.3357 16.6657C19.319 16.7018 19.311 16.7414 19.3125 16.7812V19.4474C19.3125 19.4807 19.319 19.5136 19.3318 19.5443C19.3445 19.575 19.3631 19.6029 19.3866 19.6264C19.4101 19.6499 19.438 19.6686 19.4687 19.6813C19.4995 19.694 19.5324 19.7005 19.5656 19.7005H22.6875C22.7546 19.7005 22.819 19.6739 22.8665 19.6264C22.9139 19.5789 22.9406 19.5145 22.9406 19.4474V16.7812C22.9406 16.714 22.9139 16.6496 22.8665 16.6022C22.819 16.5547 22.7546 16.528 22.6875 16.528H19.6331ZM11.3475 12.7143H14.25C14.3216 12.7143 14.3903 12.7427 14.4409 12.7934C14.4915 12.844 14.52 12.9127 14.52 12.9843V15.6168C14.5275 15.6562 14.5262 15.6969 14.516 15.7357C14.5059 15.7746 14.4872 15.8107 14.4613 15.8414C14.4354 15.8721 14.4031 15.8966 14.3665 15.9133C14.3299 15.9299 14.2901 15.9381 14.25 15.9374H11.3475C11.2804 15.9374 11.216 15.9107 11.1685 15.8633C11.121 15.8158 11.0944 15.7514 11.0944 15.6843V12.9674C11.0944 12.9342 11.1009 12.9013 11.1136 12.8705C11.1264 12.8398 11.145 12.8119 11.1685 12.7884C11.192 12.7649 11.2199 12.7463 11.2506 12.7336C11.2813 12.7208 11.3143 12.7143 11.3475 12.7143ZM15.5156 12.7143H18.5025C18.5357 12.7143 18.5686 12.7208 18.5994 12.7336C18.6301 12.7463 18.658 12.7649 18.6815 12.7884C18.705 12.8119 18.7236 12.8398 18.7363 12.8705C18.7491 12.9013 18.7556 12.9342 18.7556 12.9674V15.6168C18.7556 15.6884 18.7272 15.7571 18.6765 15.8077C18.6259 15.8583 18.5572 15.8868 18.4856 15.8868H15.5156C15.4485 15.8868 15.3841 15.8601 15.3366 15.8127C15.2892 15.7652 15.2625 15.7008 15.2625 15.6337V12.9674C15.2625 12.9342 15.269 12.9013 15.2818 12.8705C15.2945 12.8398 15.3131 12.8119 15.3366 12.7884C15.3601 12.7649 15.388 12.7463 15.4187 12.7336C15.4495 12.7208 15.4824 12.7143 15.5156 12.7143ZM19.6331 12.7143H22.6875C22.7207 12.7143 22.7536 12.7208 22.7844 12.7336C22.8151 12.7463 22.843 12.7649 22.8665 12.7884C22.89 12.8119 22.9086 12.8398 22.9213 12.8705C22.9341 12.9013 22.9406 12.9342 22.9406 12.9674V15.6168C22.9513 15.6551 22.9527 15.6954 22.9448 15.7345C22.937 15.7735 22.92 15.8101 22.8954 15.8413C22.8707 15.8725 22.839 15.8975 22.8029 15.9142C22.7668 15.9309 22.7273 15.9389 22.6875 15.9374H19.6331C19.589 15.9469 19.5433 15.9451 19.5 15.9324C19.4568 15.9196 19.4174 15.8962 19.3856 15.8643C19.3537 15.8325 19.3303 15.7931 19.3175 15.7499C19.3048 15.7066 19.303 15.6609 19.3125 15.6168V12.9674C19.311 12.9276 19.319 12.8881 19.3357 12.852C19.3524 12.8159 19.3774 12.7842 19.4086 12.7595C19.4398 12.7349 19.4764 12.7179 19.5154 12.7101C19.5545 12.7022 19.5948 12.7037 19.6331 12.7143Z" fill="#1B1F84"/>
<path id="Vector_3" d="M22.62 8.88379H19.6331C19.4933 8.88379 19.38 8.99712 19.38 9.13691V11.8032C19.38 11.943 19.4933 12.0563 19.6331 12.0563H22.62C22.7598 12.0563 22.8731 11.943 22.8731 11.8032V9.13691C22.8731 8.99712 22.7598 8.88379 22.62 8.88379Z" fill="#1B1F84"/>
<path id="Vector_4" d="M23.7844 16.5283C23.7172 16.5283 23.6529 16.555 23.6054 16.6025C23.5579 16.6499 23.5313 16.7143 23.5313 16.7814V19.4477C23.5312 19.5148 23.5579 19.5792 23.6054 19.6267C23.6529 19.6742 23.7172 19.7008 23.7844 19.7008H26.7713C26.8045 19.7008 26.8374 19.6943 26.8681 19.6816C26.8988 19.6688 26.9267 19.6502 26.9502 19.6267C26.9737 19.6032 26.9924 19.5753 27.0051 19.5446C27.0178 19.5139 27.0244 19.4809 27.0244 19.4477V16.7814C27.0244 16.7482 27.0178 16.7153 27.0051 16.6846C26.9924 16.6539 26.9737 16.626 26.9502 16.6025C26.9267 16.579 26.8988 16.5603 26.8681 16.5476C26.8374 16.5349 26.8045 16.5283 26.7713 16.5283H23.7844Z" fill="#1B1F84"/>
</g>
</svg>
