<svg width="21" height="20" viewBox="0 0 21 20" fill="none" xmlns="http://www.w3.org/2000/svg">
<g id="icon/facebook-square">
<path id="Vector" d="M17.2452 2.53284H3.97035C3.7503 2.53284 3.53927 2.62025 3.38368 2.77584C3.22808 2.93144 3.14067 3.14247 3.14067 3.36251V16.6373C3.14067 16.8574 3.22808 17.0684 3.38368 17.224C3.53927 17.3796 3.7503 17.467 3.97035 17.467H11.118V11.6925H9.17823V9.43159H11.118V7.77224C11.118 5.84324 12.2961 4.79205 14.0219 4.79205C14.6018 4.79039 15.1826 4.82025 15.76 4.88082V6.88864H14.5695C13.6336 6.88864 13.4511 7.335 13.4511 7.98796V9.42745H15.6887L15.3983 11.6883H13.4502V17.467H17.2452C17.4652 17.467 17.6762 17.3796 17.8318 17.224C17.9874 17.0684 18.0748 16.8574 18.0748 16.6373V3.36251C18.0748 3.14247 17.9874 2.93144 17.8318 2.77584C17.6762 2.62025 17.4652 2.53284 17.2452 2.53284Z" fill="white"/>
</g>
</svg>
