<svg width="42" height="42" viewBox="0 0 42 42" fill="none" xmlns="http://www.w3.org/2000/svg">
<g id="icon/figma">
<path id="Vector" d="M26.6228 15.3771C28.0846 15.3332 29.4718 14.7217 30.4903 13.6722C31.5088 12.6227 32.0785 11.2177 32.0785 9.75521C32.0785 8.29273 31.5088 6.88776 30.4903 5.83824C29.4718 4.78871 28.0846 4.17717 26.6228 4.1333H15.3773C13.9154 4.17717 12.5282 4.78871 11.5097 5.83824C10.4912 6.88776 9.92155 8.29273 9.92155 9.75521C9.92155 11.2177 10.4912 12.6227 11.5097 13.6722C12.5282 14.7217 13.9154 15.3332 15.3773 15.3771C13.9027 15.4027 12.4971 16.0064 11.4633 17.0582C10.4295 18.1101 9.85025 19.5259 9.85025 21.0007C9.85025 22.4755 10.4295 23.8913 11.4633 24.9432C12.4971 25.995 13.9027 26.5988 15.3773 26.6243C13.9099 26.6603 12.5147 27.2684 11.4895 28.319C10.4644 29.3695 9.8906 30.7792 9.8906 32.247C9.8906 33.7149 10.4644 35.1246 11.4895 36.1751C12.5147 37.2257 13.9099 37.8338 15.3773 37.8698C16.8685 37.8689 18.2984 37.276 19.3528 36.2213C20.4071 35.1667 20.9996 33.7366 21 32.2454V15.3771H26.6228Z" fill="#1B1F84"/>
<path id="Vector_2" d="M26.6227 26.6227C29.7281 26.6227 32.2455 24.1053 32.2455 20.9999C32.2455 17.8946 29.7281 15.3772 26.6227 15.3772C23.5174 15.3772 21 17.8946 21 20.9999C21 24.1053 23.5174 26.6227 26.6227 26.6227Z" fill="#1B1F84"/>
</g>
</svg>
