<svg width="21" height="20" viewBox="0 0 21 20" fill="none" xmlns="http://www.w3.org/2000/svg">
<g id="icon/github">
<path id="Vector" fill-rule="evenodd" clip-rule="evenodd" d="M10.7657 1.70312C6.19501 1.70312 2.49051 5.40763 2.49051 9.97832C2.49051 13.6339 4.86089 16.736 8.14973 17.8312C8.56374 17.9059 8.71308 17.6512 8.71308 17.4321C8.71308 17.2355 8.70644 16.7145 8.70395 16.025C6.4016 16.5245 5.91541 14.9149 5.91541 14.9149C5.5404 13.9591 4.99696 13.7044 4.99696 13.7044C4.2461 13.1908 5.05421 13.2024 5.05421 13.2024C5.88554 13.2605 6.32112 14.0553 6.32112 14.0553C7.05954 15.3198 8.25925 14.9547 8.72884 14.7431C8.80435 14.208 9.02006 13.8429 9.25569 13.6364C7.41879 13.4281 5.4873 12.7179 5.4873 9.54605C5.4873 8.6442 5.81004 7.90412 6.33689 7.32667C6.25309 7.11676 5.96685 6.27464 6.41903 5.13632C6.41903 5.13632 7.11347 4.91314 8.694 5.98342C9.36902 5.79979 10.0653 5.70606 10.7649 5.70465C11.4644 5.70579 12.1608 5.79953 12.8357 5.98342C14.4171 4.91231 15.1107 5.13632 15.1107 5.13632C15.5629 6.27464 15.2791 7.11676 15.1929 7.32667C15.7238 7.90412 16.0424 8.64337 16.0424 9.54605C16.0424 12.7262 14.1093 13.4248 12.2658 13.6297C12.5603 13.8853 12.8258 14.3897 12.8258 15.1613C12.8258 16.2681 12.8158 17.1608 12.8158 17.4321C12.8158 17.6536 12.9635 17.9108 13.3858 17.8295C16.673 16.7327 19.0409 13.633 19.0409 9.97832C19.0409 5.40763 15.3364 1.70312 10.7657 1.70312Z" fill="white"/>
</g>
</svg>
