<svg width="36" height="36" viewBox="0 0 36 36" fill="none" xmlns="http://www.w3.org/2000/svg">
<g id="icon/gmail">
<path id="Vector" d="M27.9704 8.32795L26.0741 9.80943L18 15.8094L9.92592 9.75017L8.02962 8.26869C7.58289 7.89913 7.03755 7.66875 6.46116 7.6061C5.88477 7.54345 5.30267 7.65127 4.78697 7.91622C4.27127 8.18117 3.84463 8.5916 3.5599 9.09665C3.27518 9.60171 3.1449 10.1792 3.18518 10.7576V27.9279C3.18518 28.4623 3.39745 28.9748 3.7753 29.3526C4.15316 29.7305 4.66563 29.9428 5.19999 29.9428H9.92592V18.5057L18 24.565L26.0741 18.5057V29.9428H30.8C31.3344 29.9428 31.8468 29.7305 32.2247 29.3526C32.6025 28.9748 32.8148 28.4623 32.8148 27.9279V10.7576C32.8426 10.1842 32.7033 9.61507 32.4137 9.11939C32.1241 8.62371 31.6968 8.22283 31.1836 7.96548C30.6705 7.70812 30.0936 7.60537 29.5232 7.66972C28.9528 7.73407 28.4133 7.96274 27.9704 8.32795Z" fill="#1B1F84"/>
</g>
</svg>
