<svg width="36" height="37" viewBox="0 0 36 37" fill="none" xmlns="http://www.w3.org/2000/svg">
<g id="icon/home">
<path id="Vector" d="M32.4341 19.0257L19.1007 4.21092C18.5392 3.58574 17.4607 3.58574 16.8992 4.21092L3.56591 19.0257C3.374 19.2385 3.24802 19.5024 3.20331 19.7854C3.1586 20.0684 3.19708 20.3583 3.31406 20.6198C3.5511 21.1546 4.08147 21.4983 4.66665 21.4983H7.62962V31.8687C7.62962 32.2616 7.7857 32.6384 8.06353 32.9163C8.34136 33.1941 8.71818 33.3502 9.1111 33.3502H13.5555C13.9485 33.3502 14.3253 33.1941 14.6031 32.9163C14.8809 32.6384 15.037 32.2616 15.037 31.8687V25.9428H20.9629V31.8687C20.9629 32.2616 21.119 32.6384 21.3969 32.9163C21.6747 33.1941 22.0515 33.3502 22.4444 33.3502H26.8889C27.2818 33.3502 27.6586 33.1941 27.9364 32.9163C28.2143 32.6384 28.3704 32.2616 28.3704 31.8687V21.4983H31.3333C31.6202 21.4996 31.9013 21.4173 32.1423 21.2615C32.3832 21.1058 32.5737 20.8833 32.6903 20.6211C32.807 20.359 32.8449 20.0686 32.7994 19.7853C32.7539 19.502 32.627 19.2381 32.4341 19.0257Z" fill="#1B1F84"/>
</g>
</svg>
