<svg width="42" height="42" viewBox="0 0 42 42" fill="none" xmlns="http://www.w3.org/2000/svg">
<g id="icon/java">
<path id="Vector" d="M16.5618 30.2981C11.3475 31.7493 19.7175 34.7531 26.3493 31.9856C25.7058 31.7353 25.0847 31.4304 24.4931 31.0743C22.1906 31.5985 19.8122 31.7014 17.4731 31.3781C15.2625 31.1249 16.5618 30.2981 16.5618 30.2981ZM25.5562 27.4631C22.5863 28.109 19.5297 28.2572 16.5112 27.9018C14.3006 27.6656 15.7518 26.6024 15.7518 26.6024C10.0143 28.4924 18.9412 30.6524 26.9568 28.2899C26.4357 28.1187 25.9579 27.8366 25.5562 27.4631ZM28.6275 11.0437C28.6275 11.0437 17.0343 13.9293 22.5693 20.3081C22.7853 20.567 22.9462 20.8671 23.0423 21.1903C23.1383 21.5134 23.1675 21.8528 23.128 22.1876C23.0885 22.5224 22.9812 22.8456 22.8126 23.1376C22.644 23.4295 22.4177 23.684 22.1475 23.8856C22.1475 23.8856 26.2987 21.7425 24.3918 19.0593C22.485 16.3762 21.2531 15.3131 28.6275 11.0437Z" fill="#1B1F84"/>
<path id="Vector_2" d="M31.3444 33.0487C31.3444 33.0487 32.2894 33.825 30.2812 34.4325C26.4506 35.5969 14.3681 35.9512 11.01 34.4325C9.79499 33.9094 12.0562 33.1837 12.6975 33.0319C13.0776 32.9338 13.4694 32.8883 13.8619 32.8969C12.5119 31.9519 5.17124 34.7531 10.1325 35.5631C23.7169 37.875 34.8375 34.6181 31.3444 33.0487ZM26.6869 24.8138C27.1831 24.4999 27.702 24.2235 28.2394 23.9869C28.2394 23.9869 25.6912 24.4425 23.1769 24.6619C20.473 24.9228 17.7518 24.9511 15.0431 24.7463C11.0269 24.2231 17.1862 22.6875 17.1862 22.6875C15.3327 22.6731 13.5032 23.1074 11.8537 23.9531C8.37749 25.6912 20.4431 26.4506 26.6869 24.8138ZM28.2225 28.9313C28.1856 28.9886 28.1401 29.0398 28.0875 29.0831C36.525 26.8556 33.4537 21.2362 29.4037 22.6537C29.1803 22.7359 28.9865 22.8828 28.8469 23.0756C28.8469 23.0756 29.0831 22.9912 29.5725 22.8731C31.6312 22.4512 34.5 25.6238 28.2225 28.9313ZM21 22.6875C19.7512 19.8694 15.4987 17.3887 21 13.0519C27.9019 7.635 24.375 4.125 24.375 4.125C25.7925 9.71062 19.3125 11.3981 17.0512 14.8744C15.4819 17.2537 17.8444 19.8019 21 22.6875Z" fill="#1B1F84"/>
<path id="Vector_3" d="M28.4419 36.7275C23.3435 37.6004 18.1408 37.6801 13.0181 36.9638C13.0181 36.9638 13.7944 37.605 17.8106 37.8581C23.9025 38.2463 33.2512 37.6556 33.4875 34.77C33.4875 34.77 33.0487 35.85 28.4419 36.7275Z" fill="#1B1F84"/>
</g>
</svg>
