<svg width="42" height="42" viewBox="0 0 42 42" fill="none" xmlns="http://www.w3.org/2000/svg">
<g id="icon/javascript">
<path id="Vector" d="M5.8125 5.90332H36.1875V36.2783H5.8125V5.90332ZM33.6984 29.0339C33.4774 27.6484 32.5746 26.4841 29.8982 25.3973C28.9667 24.9603 27.9322 24.6582 27.6217 23.9562C27.507 23.5377 27.4901 23.3116 27.5644 23.0635C27.7551 22.2468 28.7237 22.0021 29.4831 22.2282C29.9775 22.3801 30.4331 22.7598 30.7183 23.3689C32.0261 22.5134 32.0261 22.5134 32.9391 21.9447C32.5965 21.4148 32.4261 21.1836 32.1982 20.9558C31.4001 20.0648 30.3369 19.6092 28.6106 19.648L27.7196 19.7611C26.8641 19.9703 26.0473 20.4276 25.5546 21.0334C24.1117 22.6669 24.5286 25.5138 26.2751 26.6933C28.0014 27.9843 30.5293 28.2678 30.8516 29.4828C31.1554 30.9644 29.7514 31.4386 28.3626 31.2681C27.3382 31.0386 26.7679 30.5273 26.1418 29.5773L23.8266 30.907C24.0915 31.5128 24.3952 31.7794 24.8509 32.311C27.0531 34.5318 32.5594 34.4187 33.5466 31.0386C33.582 30.9256 33.8503 30.1476 33.6411 28.9512L33.6984 29.0339ZM22.3297 19.864H19.4846C19.4846 22.3159 19.4728 24.7544 19.4728 27.2114C19.4728 28.7706 19.5521 30.2016 19.2973 30.6421C18.8805 31.5145 17.8022 31.4031 17.3145 31.2479C16.8133 31.0015 16.5585 30.6589 16.2632 30.1662C16.1839 30.0346 16.1248 29.9198 16.1029 29.9198L13.7944 31.3441C14.1808 32.1423 14.7444 32.8274 15.4717 33.2628C16.5534 33.9091 18.0064 34.1183 19.5285 33.7774C20.5207 33.4906 21.3763 32.9016 21.8201 31.9904C22.4681 30.8142 22.3297 29.3697 22.3247 27.7564C22.3382 25.156 22.3247 22.5539 22.3247 19.9349L22.3297 19.864Z" fill="#1B1F84"/>
</g>
</svg>
