<svg width="36" height="37" viewBox="0 0 36 37" fill="none" xmlns="http://www.w3.org/2000/svg">
<g id="icon/phone-call">
<path id="Vector" d="M29.8518 16.8302H32.8148C32.8148 9.2302 27.077 3.49835 19.4667 3.49835V6.46131C25.4844 6.46131 29.8518 10.8213 29.8518 16.8302Z" fill="#1B1F84"/>
<path id="Vector_2" d="M19.4815 12.3872C22.597 12.3872 23.9259 13.7161 23.9259 16.8317H26.8889C26.8889 12.0539 24.2592 9.42428 19.4815 9.42428V12.3872ZM24.5511 20.4509C24.2664 20.1922 23.8923 20.0542 23.5078 20.0661C23.1233 20.078 22.7585 20.2388 22.4904 20.5146L18.9452 24.1606C18.0918 23.9976 16.3763 23.4628 14.6104 21.7013C12.8444 19.9339 12.3096 18.2139 12.1511 17.3665L15.7941 13.8198C16.0702 13.5519 16.2313 13.187 16.2432 12.8024C16.2551 12.4177 16.1169 12.0436 15.8578 11.7591L10.3837 5.73983C10.1245 5.45444 9.76425 5.28132 9.37947 5.25726C8.99469 5.23319 8.61569 5.36007 8.32295 5.61095L5.10814 8.36798C4.852 8.62504 4.69913 8.96717 4.67851 9.32946C4.65628 9.69983 4.23258 18.4732 11.0355 25.2791C16.9704 31.2124 24.4044 31.6465 26.4518 31.6465C26.7511 31.6465 26.9348 31.6376 26.9837 31.6346C27.3459 31.6144 27.6879 31.4608 27.9437 31.2035L30.6992 27.9872C30.9503 27.6947 31.0774 27.3158 31.0536 26.931C31.0299 26.5462 30.857 26.1859 30.5718 25.9265L24.5511 20.4509Z" fill="#1B1F84"/>
</g>
</svg>
