<svg width="42" height="42" viewBox="0 0 42 42" fill="none" xmlns="http://www.w3.org/2000/svg">
<g id="icon/react">
<path id="Vector" d="M21 22.8289C22.6636 22.8289 24.0122 21.4803 24.0122 19.8168C24.0122 18.1532 22.6636 16.8046 21 16.8046C19.3364 16.8046 17.9878 18.1532 17.9878 19.8168C17.9878 21.4803 19.3364 22.8289 21 22.8289Z" fill="#1B1F84"/>
<path id="Vector_2" d="M12.5659 25.8057L11.8993 25.6353C6.94819 24.3848 4.10812 22.2586 4.10812 19.81C4.10812 17.3598 6.94987 15.2352 11.8993 13.9848L12.5659 13.816L12.7532 14.4758C13.2536 16.2033 13.8947 17.8869 14.6702 19.5096L14.8136 19.81L14.6702 20.1104C13.8939 21.7355 13.251 23.4196 12.7532 25.1476L12.5659 25.8057ZM11.5922 15.5204C7.83075 16.5801 5.52056 18.1968 5.52056 19.81C5.52056 21.4199 7.82906 23.0382 11.5922 24.0963C12.0529 22.6315 12.6097 21.1988 13.2544 19.81C12.6051 18.4189 12.0498 16.9858 11.5922 15.5204ZM29.4324 25.8057L29.2468 25.1442C28.7451 23.4164 28.1034 21.7323 27.3281 20.1087L27.1847 19.81L27.3281 19.508C28.1044 17.8863 28.7439 16.2005 29.2468 14.4725L29.4324 13.8143L30.099 13.9831C35.0518 15.2335 37.8902 17.3581 37.8902 19.81C37.8902 22.2603 35.0501 24.3848 30.099 25.6353L29.4324 25.8057ZM28.7406 19.81C29.4156 21.2714 29.9775 22.7091 30.4061 24.0963C34.1692 23.0382 36.4794 21.4199 36.4794 19.81C36.4794 18.1968 34.1709 16.5818 30.4061 15.5204C29.9459 16.9854 29.3895 18.4183 28.7406 19.81Z" fill="#1B1F84"/>
<path id="Vector_3" d="M11.5821 15.5136L11.3964 14.8555C10.0026 9.94826 10.4244 6.43319 12.5557 5.20807C14.6398 4.00151 17.9929 5.42744 21.5046 9.03026L21.9838 9.523L21.5046 10.0141C20.2573 11.3112 19.1173 12.7074 18.0958 14.1889L17.9051 14.4623L17.5744 14.4893C15.7782 14.6304 13.9965 14.9177 12.2469 15.3483L11.5821 15.5136ZM14.2517 6.18344C13.8737 6.18344 13.5396 6.26613 13.2577 6.42813C11.8605 7.23307 11.6141 10.036 12.576 13.8194C14.0796 13.4869 15.5966 13.249 17.1255 13.1157C18.0106 11.8603 18.9762 10.6636 20.0162 9.53313C17.8174 7.39507 15.7417 6.18344 14.2517 6.18344ZM27.7466 34.8439C25.7419 34.8439 23.1667 33.3319 20.4937 30.5881L20.0162 30.097L20.4937 29.6076C21.7412 28.3084 22.8817 26.9105 23.9042 25.4277L24.0932 25.1577L24.4206 25.1256C26.2174 24.9871 27.9998 24.7009 29.7497 24.2701L30.4162 24.1013L30.6036 24.7611C31.9907 29.665 31.5705 33.1851 29.4426 34.4102C28.9259 34.7031 28.3405 34.8528 27.7466 34.8439ZM21.9838 30.0852C24.1809 32.2233 26.2582 33.4366 27.7466 33.4366C28.1263 33.4366 28.4604 33.3522 28.7406 33.1919C30.1395 32.3852 30.3876 29.5773 29.4223 25.7939C27.9204 26.128 26.4017 26.3676 24.8694 26.5009C23.9881 27.7583 23.0241 28.9557 21.9838 30.0852Z" fill="#1B1F84"/>
<path id="Vector_4" d="M30.4162 15.5136L29.7497 15.3466C27.9999 14.9146 26.2175 14.6273 24.4206 14.4876L24.0932 14.4589L23.9042 14.1856C22.8832 12.7032 21.7425 11.307 20.4937 10.0107L20.0162 9.51964L20.4937 9.03026C24.0037 5.42914 27.3551 4.0032 29.4426 5.20808C31.5722 6.43489 31.9957 9.94995 30.6036 14.8555L30.4162 15.5136ZM24.8694 13.1157C26.4793 13.2591 28.0048 13.5005 29.4223 13.8194C30.3859 10.036 30.1395 7.23308 28.7406 6.42645C27.3501 5.62151 24.7327 6.85339 21.9838 9.53314C23.0233 10.6638 23.9886 11.8585 24.8694 13.1157ZM14.2517 34.8439C13.6579 34.8524 13.0726 34.7027 12.5557 34.4103C10.4244 33.1851 10.0026 29.6667 11.3947 24.7611L11.577 24.1013L12.2436 24.2701C13.8703 24.6801 15.6624 24.9687 17.5727 25.1256L17.9001 25.1577L18.0907 25.4277C19.11 26.9093 20.2507 28.3083 21.4995 29.6076L21.9787 30.097L21.4995 30.5881C18.8282 33.3336 16.2531 34.8439 14.2517 34.8439ZM12.576 25.7956C11.6141 29.5789 11.8605 32.3869 13.2577 33.1936C14.6499 33.9867 17.2588 32.7633 20.0162 30.0852C18.9766 28.9544 18.011 27.7577 17.1255 26.5026C15.5951 26.3673 14.0753 26.1311 12.576 25.7956Z" fill="#1B1F84"/>
<path id="Vector_5" d="M21 26.6815C19.8407 26.6815 18.651 26.6326 17.4563 26.533L17.1255 26.5043L16.9348 26.231C16.2611 25.2622 15.6272 24.2663 15.0347 23.2458C14.4466 22.2225 13.8999 21.176 13.3961 20.1087L13.2544 19.81L13.3961 19.508C13.9007 18.4415 14.4458 17.3952 15.0347 16.3726C15.6203 15.3668 16.2598 14.3611 16.9348 13.3857L17.1255 13.1157L17.4563 13.0853C19.8135 12.8879 22.1831 12.8879 24.5404 13.0853L24.8678 13.1174L25.0584 13.3874C26.4081 15.3259 27.5935 17.3738 28.6022 19.5096L28.7423 19.8117L28.6022 20.1104C27.5963 22.2477 26.4108 24.2958 25.0584 26.2326L24.8678 26.506L24.5404 26.5347C23.349 26.6309 22.1576 26.6815 21 26.6815ZM17.9051 25.156C19.9892 25.313 22.0108 25.313 24.0932 25.156C25.2557 23.4537 26.2891 21.6667 27.1847 19.81C26.2922 17.9517 25.2587 16.1644 24.0932 14.464C22.0336 14.3054 19.9648 14.3054 17.9051 14.464C16.7386 16.1638 15.7051 17.9511 14.8136 19.81C15.7112 21.6657 16.7445 23.4525 17.9051 25.156Z" fill="#1B1F84"/>
</g>
</svg>
