<svg width="42" height="42" viewBox="0 0 42 42" fill="none" xmlns="http://www.w3.org/2000/svg">
<g id="icon/spring-boot">
<path id="Vector" d="M34.846 28.4116C30.6796 33.9618 21.7831 32.0887 16.0776 32.357C16.0776 32.357 15.0668 32.4144 14.0509 32.5814C14.0509 32.5814 14.4357 32.4177 14.9267 32.2473C18.9329 30.8619 20.8262 30.5834 23.2613 29.333C27.8344 26.9907 32.3873 21.886 33.3138 16.5839C31.5723 21.6835 26.2769 26.0727 21.4557 27.8547C18.1566 29.0731 12.1879 30.2577 12.1862 30.2577C12.1052 30.2162 12.0247 30.1735 11.9449 30.1295C7.8865 28.1551 7.76837 19.3632 15.1411 16.5299C18.3743 15.2879 21.4641 15.9697 24.9589 15.1377C28.6849 14.2518 33.0016 11.459 34.7549 7.80724C36.7208 13.6426 39.0833 22.7686 34.846 28.4116ZM34.9169 6.00161C34.4455 7.13181 33.8423 8.20236 33.1197 9.19098C31.5489 7.57207 29.669 6.28514 27.5915 5.40652C25.5139 4.52791 23.2811 4.07551 21.0254 4.07617C11.7053 4.07617 4.12506 11.6564 4.12506 20.9748C4.12397 23.2992 4.60392 25.5987 5.5347 27.7286C6.46548 29.8585 7.82696 31.7728 9.5335 33.3509L9.90475 33.6783C9.63415 33.4073 9.48227 33.0398 9.48251 32.6568C9.48275 32.2738 9.63508 31.9066 9.90602 31.6359C10.177 31.3652 10.5443 31.2131 10.9273 31.2132C11.3103 31.2133 11.6776 31.3655 11.9484 31.6363C12.2192 31.9071 12.3714 32.2744 12.3715 32.6574C12.3716 33.0404 12.2196 33.4078 11.9488 33.6787C11.6781 33.9497 11.3109 34.102 10.9279 34.1022C10.5449 34.1025 10.1775 33.9506 9.90644 33.68L10.1579 33.9027C13.1961 36.4713 17.0469 37.8789 21.0254 37.8751C29.932 37.8751 37.2473 30.9429 37.8734 22.1949C38.3358 17.9103 37.0701 12.4698 34.9169 6.00161Z" fill="#1B1F84"/>
</g>
</svg>
