<svg width="42" height="42" viewBox="0 0 42 42" fill="none" xmlns="http://www.w3.org/2000/svg">
<g id="icon/vaadin">
<path id="path3921" d="M11.8309 30.6986C11.3672 30.507 11.1202 29.8698 11.3196 29.3793C11.4634 29.0254 11.7871 28.8757 12.5258 28.8215C13.8452 28.7248 13.8743 28.6549 13.875 25.5845C13.8753 24.2909 13.9151 23.0033 13.9635 22.723C14.1132 21.8555 14.5476 21.4293 15.6456 21.0726C15.804 21.0212 15.7866 20.9985 15.5094 20.8952C14.5138 20.5243 14.1076 20.0963 13.9647 19.2671C13.9157 18.9826 13.8753 17.6916 13.875 16.398C13.8743 13.3276 13.8452 13.2577 12.5258 13.161C11.7871 13.1068 11.4634 12.9571 11.3196 12.6032C11.1758 12.2494 11.2835 11.7304 11.5538 11.4739C11.7891 11.2507 11.7945 11.25 13.309 11.25C14.5362 11.25 14.918 11.2797 15.2953 11.4047C15.8567 11.5907 16.3732 12.0442 16.634 12.5802C16.8143 12.9507 16.8286 13.156 16.874 16.0344C16.9335 19.8018 16.9246 19.7729 18.0833 19.9556C18.8287 20.0731 19.1424 20.3928 19.1424 21.0347C19.1424 21.5247 18.7256 21.9349 18.1412 22.0201C17.4878 22.1153 17.2594 22.2348 17.0851 22.5724C16.9411 22.8514 16.9168 23.2402 16.874 25.9481C16.8286 28.8264 16.8143 29.0318 16.634 29.4023C16.5286 29.619 16.2902 29.9365 16.1042 30.108C15.5628 30.607 15.1301 30.7114 13.4658 30.7446C12.6665 30.7606 11.9308 30.7398 11.8309 30.6986ZM21.0905 25.6419C20.635 25.4285 20.5048 25.1197 20.5052 24.2538C20.5055 23.3989 20.6582 23.0381 21.1139 22.815C21.2535 22.7466 22.6347 22.3364 24.1833 21.9034C27.5597 20.9592 27.2787 21.05 27.1636 20.9406C27.1125 20.8922 25.7496 20.4825 24.1348 20.0302C22.5201 19.5778 21.1019 19.1475 20.9835 19.0738C20.6202 18.8479 20.5048 18.5204 20.5048 17.7154C20.5048 16.6885 20.6757 16.4075 21.424 16.2039C22.0117 16.0439 22.7041 16.4905 22.8262 17.1085C22.8581 17.2698 22.9517 17.4273 23.0342 17.4586C23.1167 17.4898 24.6965 18.0015 26.5448 18.5956C28.3931 19.1897 30.0174 19.7302 30.1543 19.7965C30.5022 19.9653 30.6741 20.2502 30.7383 20.7642C30.804 21.2912 30.5851 21.9288 30.2834 22.0887C30.1754 22.146 28.4781 22.7178 26.5118 23.3593L22.9365 24.5257L22.7879 24.9547C22.5384 25.6748 21.7994 25.974 21.0905 25.6419Z" fill="#1B1F84"/>
<path id="path3921_2" d="M5.52716 37.3663C4.74464 37.0431 4.32791 35.9678 4.6643 35.14C4.90694 34.5428 5.45331 34.2902 6.69975 34.1988C8.92626 34.0356 8.97545 33.9176 8.97661 28.7363C8.97707 26.5534 9.04427 24.3805 9.12587 23.9076C9.37845 22.4437 10.1116 21.7244 11.9645 21.1226C12.2318 21.0357 12.2024 20.9974 11.7346 20.8231C10.0545 20.1973 9.36915 19.4749 9.12796 18.0758C9.04521 17.5957 8.9771 15.417 8.97661 13.2342C8.97538 8.05285 8.92626 7.93485 6.69975 7.77161C5.45331 7.68023 4.90694 7.42759 4.6643 6.83045C4.42171 6.23342 4.6034 5.35749 5.0596 4.92473C5.45668 4.54803 5.46576 4.54688 8.02147 4.54688C10.0923 4.54688 10.7365 4.59705 11.3733 4.80795C12.3206 5.12174 13.1923 5.88713 13.6324 6.79153C13.9367 7.41679 13.9608 7.76331 14.0374 12.6206C14.1378 18.978 14.1228 18.9293 16.0781 19.2376C17.3359 19.4359 17.8653 19.9753 17.8653 21.0586C17.8653 21.8855 17.162 22.5777 16.1757 22.7214C15.0731 22.882 14.6877 23.0837 14.3936 23.6535C14.1506 24.1243 14.1096 24.7804 14.0374 29.3499C13.9608 34.2071 13.9367 34.5536 13.6324 35.1789C13.4545 35.5445 13.0521 36.0804 12.7383 36.3697C11.8246 37.2119 11.0946 37.388 8.28601 37.444C6.93724 37.4709 5.69576 37.436 5.52716 37.3663ZM21.1528 28.8332C20.3841 28.4731 20.1643 27.952 20.165 26.4907C20.1656 25.0482 20.4232 24.4393 21.1922 24.0628C21.4277 23.9475 23.7586 23.2552 26.3718 22.5244C32.0696 20.9311 31.5954 21.0843 31.401 20.8998C31.3149 20.8181 29.015 20.1267 26.29 19.3634C23.5651 18.6001 21.172 17.8739 20.9721 17.7495C20.3591 17.3683 20.1644 16.8158 20.1644 15.4573C20.1644 13.7244 20.4527 13.2502 21.7155 12.9065C22.7073 12.6365 23.8756 13.3903 24.0817 14.4332C24.1355 14.7053 24.2934 14.9711 24.4327 15.0238C24.5719 15.0766 27.2378 15.94 30.3568 16.9426C33.4758 17.9452 36.2168 18.8571 36.4478 18.9692C37.0349 19.2539 37.3251 19.7347 37.4333 20.6021C37.5443 21.4914 37.1748 22.5674 36.6658 22.8372C36.4835 22.9339 33.6194 23.8987 30.3011 24.9813L24.2678 26.9496L24.017 27.6736C23.5961 28.8887 22.3491 29.3936 21.1528 28.8332Z" fill="#1B1F84"/>
</g>
</svg>
