<svg width="21" height="20" viewBox="0 0 21 20" fill="none" xmlns="http://www.w3.org/2000/svg">
<g id="icon/whatsapp-regular">
<path id="Vector" fill-rule="evenodd" clip-rule="evenodd" d="M15.6474 4.7174C14.9574 4.02286 14.1365 3.47215 13.2321 3.09716C12.3278 2.72218 11.358 2.53037 10.379 2.53286C6.27375 2.53286 2.93181 5.87397 2.93015 9.98086C2.93015 11.2934 3.27281 12.5744 3.9241 13.7045L2.86792 17.5633L6.81635 16.527C7.90853 17.1216 9.13214 17.4333 10.3757 17.4338H10.379C14.4834 17.4338 17.8253 14.0927 17.827 9.98584C17.8298 9.00723 17.6386 8.03776 17.2645 7.13347C16.8904 6.22917 16.3408 5.408 15.6474 4.7174ZM10.379 16.1769H10.3765C9.26765 16.177 8.17921 15.8787 7.22538 15.3132L6.99971 15.1788L4.65671 15.7936L5.28145 13.5095L5.1346 13.2755C4.51465 12.2885 4.18647 11.1464 4.18794 9.98086C4.1896 6.56758 6.96652 3.79065 10.3815 3.79065C11.1948 3.78884 12.0003 3.94836 12.7516 4.25996C13.5028 4.57156 14.1848 5.02906 14.758 5.60598C15.3343 6.18015 15.7911 6.86285 16.102 7.61463C16.4129 8.3664 16.5717 9.17233 16.5692 9.98584C16.5675 13.3991 13.7906 16.1769 10.379 16.1769ZM13.7748 11.5398C13.5882 11.4461 12.6739 10.9964 12.503 10.9342C12.3329 10.8719 12.2092 10.8412 12.0848 11.0271C11.9603 11.2129 11.6036 11.6319 11.4949 11.7564C11.3862 11.8808 11.2775 11.8958 11.0917 11.8028C10.9058 11.7099 10.306 11.5133 9.59494 10.8794C9.04154 10.3857 8.66819 9.77676 8.5595 9.59009C8.45081 9.40341 8.54789 9.30302 8.64164 9.21009C8.72544 9.12713 8.82749 8.99272 8.92041 8.88403C9.01334 8.77534 9.04403 8.69818 9.10626 8.57373C9.16849 8.44928 9.13779 8.34059 9.0905 8.24767C9.04403 8.15392 8.67151 7.23795 8.51636 6.86543C8.36619 6.50452 8.2127 6.55264 8.0982 6.54766C7.97962 6.54281 7.86095 6.5406 7.74227 6.54103C7.6479 6.54343 7.55504 6.56531 7.46952 6.60528C7.384 6.64526 7.30767 6.70247 7.2453 6.77334C7.07438 6.96001 6.594 7.4097 6.594 8.32566C6.594 9.24162 7.26106 10.1269 7.35398 10.2513C7.44691 10.3758 8.66653 12.255 10.5333 13.0615C10.978 13.2531 11.3248 13.3676 11.5945 13.4539C12.04 13.5958 12.4457 13.575 12.7668 13.5277C13.1244 13.4746 13.8678 13.078 14.0229 12.6433C14.1781 12.2085 14.1781 11.836 14.1316 11.758C14.0851 11.68 13.9599 11.6327 13.7748 11.5398Z" fill="white"/>
</g>
</svg>
