<svg width="192" height="188" viewBox="0 0 192 188" fill="none" xmlns="http://www.w3.org/2000/svg">
<path id="Ellipse 10" d="M192 92C192 109.705 187.104 127.064 177.853 142.16C168.603 157.255 155.358 169.499 139.583 177.537C123.808 185.574 106.118 189.093 88.4679 187.704C70.818 186.315 53.8959 180.072 39.5726 169.666C25.2493 159.259 14.0828 145.094 7.30757 128.738C0.53233 112.381 -1.58768 94.4689 1.18192 76.9823C3.95152 59.4957 11.5028 43.1156 23.001 29.653C34.4992 16.1904 49.4963 6.16959 66.3344 0.698578L69.3009 9.82873C54.1467 14.7526 40.6493 23.7713 30.3009 35.8877C19.9526 48.0041 13.1564 62.7462 10.6637 78.4841C8.17109 94.222 10.0791 110.343 16.1768 125.064C22.2745 139.785 32.3244 152.533 45.2154 161.899C58.1063 171.265 73.3362 176.883 89.2211 178.134C105.106 179.384 121.027 176.217 135.225 168.983C149.422 161.749 161.343 150.73 169.668 137.144C177.994 123.558 182.4 107.934 182.4 92H192Z" fill="#1B1F84"/>
</svg>
