<svg width="192" height="193" viewBox="0 0 192 193" fill="none" xmlns="http://www.w3.org/2000/svg">
<path id="Ellipse 10" d="M192 96.0908C192 115.078 186.37 133.638 175.821 149.426C165.272 165.213 150.279 177.517 132.738 184.783C115.196 192.049 95.8935 193.95 77.2713 190.246C58.6492 186.542 41.5436 177.399 28.1177 163.973C14.6919 150.547 5.54879 133.442 1.84461 114.819C-1.85957 96.1973 0.0415523 76.8949 7.30757 59.3532C14.5736 41.8115 26.8781 26.8184 42.6653 16.2697C58.4524 5.72112 77.013 0.0908201 96 0.0908203L96 9.69083C78.9117 9.69083 62.2071 14.7581 47.9987 24.2519C33.7903 33.7456 22.7162 47.2394 16.1768 63.027C9.6374 78.8145 7.92639 96.1867 11.2602 112.947C14.5939 129.707 22.8227 145.102 34.906 157.185C46.9892 169.268 62.3842 177.497 79.1442 180.831C95.9042 184.164 113.276 182.453 129.064 175.914C144.851 169.375 158.345 158.3 167.839 144.092C177.333 129.884 182.4 113.179 182.4 96.0908H192Z" fill="#1B1F84"/>
</svg>
