<svg width="192" height="193" viewBox="0 0 192 193" fill="none" xmlns="http://www.w3.org/2000/svg">
<path id="Ellipse 10" d="M192 96.0908C192 116.364 185.582 136.117 173.666 152.518C161.749 168.92 144.947 181.127 125.666 187.392C106.385 193.657 85.6153 193.657 66.3344 187.392C47.0534 181.127 30.2507 168.92 18.3344 152.518C6.41807 136.117 -1.77234e-06 116.364 0 96.0908C1.77234e-06 75.8176 6.41808 56.0648 18.3344 39.6634C30.2507 23.2621 47.0534 11.0542 66.3344 4.78939C85.6153 -1.47537 106.385 -1.47537 125.666 4.7894L122.699 13.9195C105.346 8.28126 86.6538 8.28125 69.3009 13.9195C51.9481 19.5578 36.8256 30.5449 26.1009 45.3062C15.3763 60.0674 9.60001 77.8449 9.60001 96.0908C9.6 114.337 15.3763 132.114 26.1009 146.875C36.8256 161.637 51.9481 172.624 69.3009 178.262C86.6538 183.9 105.346 183.9 122.699 178.262C140.052 172.624 155.174 161.637 165.899 146.875C176.624 132.114 182.4 114.337 182.4 96.0908H192Z" fill="#1B1F84"/>
</svg>
