<svg width="192" height="192" viewBox="0 0 192 192" fill="none" xmlns="http://www.w3.org/2000/svg">
<path id="Ellipse 10" d="M192 96C192 117.563 184.74 138.499 171.39 155.433C158.041 172.367 139.378 184.314 118.411 189.348C97.4431 194.381 75.3913 192.209 55.8087 183.182C36.226 174.154 20.253 158.796 10.4634 139.583C0.67379 120.37 -2.3622 98.4204 1.84461 77.2713C6.05142 56.1223 17.256 37.0054 33.653 23.001C50.0499 8.99672 70.6842 0.920593 92.231 0.0740132C113.778 -0.772566 134.982 5.6597 152.427 18.3344L146.785 26.1009C131.084 14.6937 112 8.9047 92.6079 9.66662C73.2158 10.4285 54.6449 17.6971 39.8877 30.3009C25.1304 42.9048 15.0463 60.11 11.2602 79.1442C7.47403 98.1784 10.2064 117.933 19.017 135.225C27.8277 152.517 42.2034 166.339 59.8278 174.464C77.4522 182.589 97.2988 184.543 116.17 180.013C135.041 175.482 151.837 164.73 163.851 149.49C175.866 134.249 182.4 115.407 182.4 96H192Z" fill="#1B1F84"/>
</svg>
