<svg width="192" height="193" viewBox="0 0 192 193" fill="none" xmlns="http://www.w3.org/2000/svg">
<path id="Ellipse 10" d="M192 96.0908C192 118.949 183.844 141.057 168.999 158.438C154.154 175.819 133.594 187.333 111.018 190.909C88.4412 194.485 65.3297 189.887 45.8401 177.944C26.3506 166.001 11.7621 147.496 4.69858 125.756C-2.3649 104.017 -1.43978 80.4712 7.30756 59.3532C16.0549 38.2353 32.0504 20.9315 52.4169 10.5542C72.7834 0.176926 96.1844 -2.59276 118.411 2.74331C140.637 8.07938 160.23 21.171 173.666 39.6634L165.899 45.3062C153.807 28.663 136.173 16.8805 116.17 12.0781C96.166 7.2756 75.1051 9.76832 56.7752 19.1079C38.4453 28.4474 24.0494 44.0208 16.1768 63.027C8.30421 82.0331 7.47159 103.225 13.8287 122.79C20.1859 142.355 33.3155 159.01 50.8561 169.759C68.3967 180.508 89.1971 184.645 109.516 181.427C129.835 178.209 148.339 167.846 161.699 152.203C175.06 136.56 182.4 116.663 182.4 96.0908H192Z" fill="#1B1F84"/>
</svg>
